<svg width="238" height="39" viewBox="0 0 238 39" fill="none" xmlns="http://www.w3.org/2000/svg">
<path d="M10.792 18.3H4.942L3.826 21H0.838L6.454 8.4H9.334L14.968 21H11.908L10.792 18.3ZM9.874 16.086L7.876 11.262L5.878 16.086H9.874ZM15.8072 7.644H18.6152V21H15.8072V7.644ZM20.9513 7.644H23.7593V21H20.9513V7.644ZM35.5814 16.194C35.5814 16.23 35.5634 16.482 35.5274 16.95H28.2014C28.3334 17.55 28.6454 18.024 29.1374 18.372C29.6294 18.72 30.2414 18.894 30.9734 18.894C31.4774 18.894 31.9214 18.822 32.3054 18.678C32.7014 18.522 33.0674 18.282 33.4034 17.958L34.8974 19.578C33.9854 20.622 32.6534 21.144 30.9014 21.144C29.8094 21.144 28.8434 20.934 28.0034 20.514C27.1634 20.082 26.5154 19.488 26.0594 18.732C25.6034 17.976 25.3754 17.118 25.3754 16.158C25.3754 15.21 25.5974 14.358 26.0414 13.602C26.4974 12.834 27.1154 12.24 27.8954 11.82C28.6874 11.388 29.5694 11.172 30.5414 11.172C31.4894 11.172 32.3474 11.376 33.1154 11.784C33.8834 12.192 34.4834 12.78 34.9154 13.548C35.3594 14.304 35.5814 15.186 35.5814 16.194ZM30.5594 13.296C29.9234 13.296 29.3894 13.476 28.9574 13.836C28.5254 14.196 28.2614 14.688 28.1654 15.312H32.9354C32.8394 14.7 32.5754 14.214 32.1434 13.854C31.7114 13.482 31.1834 13.296 30.5594 13.296ZM48.3085 21.216C47.0005 21.216 45.8185 20.934 44.7625 20.37C43.7185 19.806 42.8965 19.032 42.2965 18.048C41.7085 17.052 41.4145 15.936 41.4145 14.7C41.4145 13.464 41.7085 12.354 42.2965 11.37C42.8965 10.374 43.7185 9.594 44.7625 9.03C45.8185 8.466 47.0005 8.184 48.3085 8.184C49.6165 8.184 50.7925 8.466 51.8365 9.03C52.8805 9.594 53.7025 10.374 54.3025 11.37C54.9025 12.354 55.2025 13.464 55.2025 14.7C55.2025 15.936 54.9025 17.052 54.3025 18.048C53.7025 19.032 52.8805 19.806 51.8365 20.37C50.7925 20.934 49.6165 21.216 48.3085 21.216ZM48.3085 18.732C49.0525 18.732 49.7245 18.564 50.3245 18.228C50.9245 17.88 51.3925 17.4 51.7285 16.788C52.0765 16.176 52.2505 15.48 52.2505 14.7C52.2505 13.92 52.0765 13.224 51.7285 12.612C51.3925 12 50.9245 11.526 50.3245 11.19C49.7245 10.842 49.0525 10.668 48.3085 10.668C47.5645 10.668 46.8925 10.842 46.2925 11.19C45.6925 11.526 45.2185 12 44.8705 12.612C44.5345 13.224 44.3665 13.92 44.3665 14.7C44.3665 15.48 44.5345 16.176 44.8705 16.788C45.2185 17.4 45.6925 17.88 46.2925 18.228C46.8925 18.564 47.5645 18.732 48.3085 18.732ZM62.65 11.172C63.55 11.172 64.366 11.382 65.098 11.802C65.842 12.21 66.424 12.792 66.844 13.548C67.264 14.292 67.474 15.162 67.474 16.158C67.474 17.154 67.264 18.03 66.844 18.786C66.424 19.53 65.842 20.112 65.098 20.532C64.366 20.94 63.55 21.144 62.65 21.144C61.318 21.144 60.304 20.724 59.608 19.884V21H56.926V7.644H59.734V12.342C60.442 11.562 61.414 11.172 62.65 11.172ZM62.164 18.84C62.884 18.84 63.472 18.6 63.928 18.12C64.396 17.628 64.63 16.974 64.63 16.158C64.63 15.342 64.396 14.694 63.928 14.214C63.472 13.722 62.884 13.476 62.164 13.476C61.444 13.476 60.85 13.722 60.382 14.214C59.926 14.694 59.698 15.342 59.698 16.158C59.698 16.974 59.926 17.628 60.382 18.12C60.85 18.6 61.444 18.84 62.164 18.84ZM68.3637 24.636C67.3797 24.636 66.6297 24.456 66.1137 24.096L66.8697 22.062C67.1937 22.29 67.5897 22.404 68.0577 22.404C68.4177 22.404 68.6997 22.284 68.9037 22.044C69.1077 21.816 69.2097 21.468 69.2097 21V11.316H72.0177V20.982C72.0177 22.11 71.6937 22.998 71.0457 23.646C70.4097 24.306 69.5157 24.636 68.3637 24.636ZM70.6137 9.966C70.0977 9.966 69.6777 9.816 69.3537 9.516C69.0297 9.216 68.8677 8.844 68.8677 8.4C68.8677 7.956 69.0297 7.584 69.3537 7.284C69.6777 6.984 70.0977 6.834 70.6137 6.834C71.1297 6.834 71.5497 6.978 71.8737 7.266C72.1977 7.554 72.3597 7.914 72.3597 8.346C72.3597 8.814 72.1977 9.204 71.8737 9.516C71.5497 9.816 71.1297 9.966 70.6137 9.966ZM83.8193 16.194C83.8193 16.23 83.8013 16.482 83.7653 16.95H76.4393C76.5713 17.55 76.8833 18.024 77.3753 18.372C77.8673 18.72 78.4793 18.894 79.2113 18.894C79.7153 18.894 80.1593 18.822 80.5433 18.678C80.9393 18.522 81.3053 18.282 81.6413 17.958L83.1353 19.578C82.2233 20.622 80.8913 21.144 79.1393 21.144C78.0473 21.144 77.0813 20.934 76.2413 20.514C75.4013 20.082 74.7533 19.488 74.2973 18.732C73.8413 17.976 73.6133 17.118 73.6133 16.158C73.6133 15.21 73.8353 14.358 74.2793 13.602C74.7353 12.834 75.3533 12.24 76.1333 11.82C76.9253 11.388 77.8073 11.172 78.7793 11.172C79.7273 11.172 80.5853 11.376 81.3533 11.784C82.1213 12.192 82.7213 12.78 83.1533 13.548C83.5973 14.304 83.8193 15.186 83.8193 16.194ZM78.7973 13.296C78.1613 13.296 77.6273 13.476 77.1953 13.836C76.7633 14.196 76.4993 14.688 76.4033 15.312H81.1733C81.0773 14.7 80.8133 14.214 80.3813 13.854C79.9493 13.482 79.4213 13.296 78.7973 13.296ZM89.5767 17.202L88.2267 18.534V21H85.4187V7.644H88.2267V15.204L92.3307 11.316H95.6787L91.6467 15.42L96.0387 21H92.6367L89.5767 17.202ZM103.278 20.532C103.002 20.736 102.66 20.892 102.252 21C101.856 21.096 101.436 21.144 100.992 21.144C99.8396 21.144 98.9456 20.85 98.3096 20.262C97.6856 19.674 97.3736 18.81 97.3736 17.67V13.692H95.8795V11.532H97.3736V9.174H100.182V11.532H102.594V13.692H100.182V17.634C100.182 18.042 100.284 18.36 100.488 18.588C100.704 18.804 101.004 18.912 101.388 18.912C101.832 18.912 102.21 18.792 102.522 18.552L103.278 20.532ZM113.771 16.194C113.771 16.23 113.753 16.482 113.717 16.95H106.391C106.523 17.55 106.835 18.024 107.327 18.372C107.819 18.72 108.431 18.894 109.163 18.894C109.667 18.894 110.111 18.822 110.495 18.678C110.891 18.522 111.257 18.282 111.593 17.958L113.087 19.578C112.175 20.622 110.843 21.144 109.091 21.144C107.999 21.144 107.033 20.934 106.193 20.514C105.353 20.082 104.705 19.488 104.249 18.732C103.793 17.976 103.565 17.118 103.565 16.158C103.565 15.21 103.787 14.358 104.231 13.602C104.687 12.834 105.305 12.24 106.085 11.82C106.877 11.388 107.759 11.172 108.731 11.172C109.679 11.172 110.537 11.376 111.305 11.784C112.073 12.192 112.673 12.78 113.105 13.548C113.549 14.304 113.771 15.186 113.771 16.194ZM108.749 13.296C108.113 13.296 107.579 13.476 107.147 13.836C106.715 14.196 106.451 14.688 106.355 15.312H111.125C111.029 14.7 110.765 14.214 110.333 13.854C109.901 13.482 109.373 13.296 108.749 13.296ZM124.104 11.172C125.604 11.172 126.756 11.532 127.56 12.252C128.364 12.96 128.766 14.034 128.766 15.474V21H126.138V19.794C125.61 20.694 124.626 21.144 123.186 21.144C122.442 21.144 121.794 21.018 121.242 20.766C120.702 20.514 120.288 20.166 120 19.722C119.712 19.278 119.568 18.774 119.568 18.21C119.568 17.31 119.904 16.602 120.576 16.086C121.26 15.57 122.31 15.312 123.726 15.312H125.958C125.958 14.7 125.772 14.232 125.4 13.908C125.028 13.572 124.47 13.404 123.726 13.404C123.21 13.404 122.7 13.488 122.196 13.656C121.704 13.812 121.284 14.028 120.936 14.304L119.928 12.342C120.456 11.97 121.086 11.682 121.818 11.478C122.562 11.274 123.324 11.172 124.104 11.172ZM123.888 19.254C124.368 19.254 124.794 19.146 125.166 18.93C125.538 18.702 125.802 18.372 125.958 17.94V16.95H124.032C122.88 16.95 122.304 17.328 122.304 18.084C122.304 18.444 122.442 18.732 122.718 18.948C123.006 19.152 123.396 19.254 123.888 19.254ZM136.923 11.172C138.123 11.172 139.089 11.532 139.821 12.252C140.565 12.972 140.937 14.04 140.937 15.456V21H138.129V15.888C138.129 15.12 137.961 14.55 137.625 14.178C137.289 13.794 136.803 13.602 136.167 13.602C135.459 13.602 134.895 13.824 134.475 14.268C134.055 14.7 133.845 15.348 133.845 16.212V21H131.037V11.316H133.719V12.45C134.091 12.042 134.553 11.73 135.105 11.514C135.657 11.286 136.263 11.172 136.923 11.172ZM151.187 18.84V21H142.547V19.308L147.479 13.476H142.673V11.316H151.025V13.008L146.093 18.84H151.187ZM162.079 16.194C162.079 16.23 162.061 16.482 162.025 16.95H154.699C154.831 17.55 155.143 18.024 155.635 18.372C156.127 18.72 156.739 18.894 157.471 18.894C157.975 18.894 158.419 18.822 158.803 18.678C159.199 18.522 159.565 18.282 159.901 17.958L161.395 19.578C160.483 20.622 159.151 21.144 157.399 21.144C156.307 21.144 155.341 20.934 154.501 20.514C153.661 20.082 153.013 19.488 152.557 18.732C152.101 17.976 151.873 17.118 151.873 16.158C151.873 15.21 152.095 14.358 152.539 13.602C152.995 12.834 153.613 12.24 154.393 11.82C155.185 11.388 156.067 11.172 157.039 11.172C157.987 11.172 158.845 11.376 159.613 11.784C160.381 12.192 160.981 12.78 161.413 13.548C161.857 14.304 162.079 15.186 162.079 16.194ZM157.057 13.296C156.421 13.296 155.887 13.476 155.455 13.836C155.023 14.196 154.759 14.688 154.663 15.312H159.433C159.337 14.7 159.073 14.214 158.641 13.854C158.209 13.482 157.681 13.296 157.057 13.296ZM163.679 11.316H166.487V21H163.679V11.316ZM165.083 9.966C164.567 9.966 164.147 9.816 163.823 9.516C163.499 9.216 163.337 8.844 163.337 8.4C163.337 7.956 163.499 7.584 163.823 7.284C164.147 6.984 164.567 6.834 165.083 6.834C165.599 6.834 166.019 6.978 166.343 7.266C166.667 7.554 166.829 7.914 166.829 8.346C166.829 8.814 166.667 9.204 166.343 9.516C166.019 9.816 165.599 9.966 165.083 9.966ZM178.813 11.316V19.38C178.813 21.156 178.351 22.476 177.427 23.34C176.503 24.204 175.153 24.636 173.377 24.636C172.441 24.636 171.553 24.522 170.713 24.294C169.873 24.066 169.177 23.736 168.625 23.304L169.741 21.288C170.149 21.624 170.665 21.888 171.289 22.08C171.913 22.284 172.537 22.386 173.161 22.386C174.133 22.386 174.847 22.164 175.303 21.72C175.771 21.288 176.005 20.628 176.005 19.74V19.326C175.273 20.13 174.253 20.532 172.945 20.532C172.057 20.532 171.241 20.34 170.497 19.956C169.765 19.56 169.183 19.008 168.751 18.3C168.319 17.592 168.103 16.776 168.103 15.852C168.103 14.928 168.319 14.112 168.751 13.404C169.183 12.696 169.765 12.15 170.497 11.766C171.241 11.37 172.057 11.172 172.945 11.172C174.349 11.172 175.417 11.634 176.149 12.558V11.316H178.813ZM173.503 18.228C174.247 18.228 174.853 18.012 175.321 17.58C175.801 17.136 176.041 16.56 176.041 15.852C176.041 15.144 175.801 14.574 175.321 14.142C174.853 13.698 174.247 13.476 173.503 13.476C172.759 13.476 172.147 13.698 171.667 14.142C171.187 14.574 170.947 15.144 170.947 15.852C170.947 16.56 171.187 17.136 171.667 17.58C172.147 18.012 172.759 18.228 173.503 18.228ZM190.642 16.194C190.642 16.23 190.624 16.482 190.588 16.95H183.262C183.394 17.55 183.706 18.024 184.198 18.372C184.69 18.72 185.302 18.894 186.034 18.894C186.538 18.894 186.982 18.822 187.366 18.678C187.762 18.522 188.128 18.282 188.464 17.958L189.958 19.578C189.046 20.622 187.714 21.144 185.962 21.144C184.87 21.144 183.904 20.934 183.064 20.514C182.224 20.082 181.576 19.488 181.12 18.732C180.664 17.976 180.436 17.118 180.436 16.158C180.436 15.21 180.658 14.358 181.102 13.602C181.558 12.834 182.176 12.24 182.956 11.82C183.748 11.388 184.63 11.172 185.602 11.172C186.55 11.172 187.408 11.376 188.176 11.784C188.944 12.192 189.544 12.78 189.976 13.548C190.42 14.304 190.642 15.186 190.642 16.194ZM185.62 13.296C184.984 13.296 184.45 13.476 184.018 13.836C183.586 14.196 183.322 14.688 183.226 15.312H187.996C187.9 14.7 187.636 14.214 187.204 13.854C186.772 13.482 186.244 13.296 185.62 13.296ZM198.128 11.172C199.328 11.172 200.294 11.532 201.026 12.252C201.77 12.972 202.142 14.04 202.142 15.456V21H199.334V15.888C199.334 15.12 199.166 14.55 198.83 14.178C198.494 13.794 198.008 13.602 197.372 13.602C196.664 13.602 196.1 13.824 195.68 14.268C195.26 14.7 195.05 15.348 195.05 16.212V21H192.242V11.316H194.924V12.45C195.296 12.042 195.758 11.73 196.31 11.514C196.862 11.286 197.468 11.172 198.128 11.172Z" fill="black"/>
<path d="M226 25L236 15.5L226 6" stroke="black" stroke-width="2"/>
</svg>
