<svg width="321" height="45" viewBox="0 0 321 45" fill="none" xmlns="http://www.w3.org/2000/svg">
<rect width="321" height="45" fill="black"/>
<path d="M123.926 30.6758C122.709 30.6758 121.528 30.5144 120.384 30.1918C119.255 29.8544 118.345 29.4218 117.656 28.8938L118.866 26.2098C119.526 26.6938 120.311 27.0824 121.22 27.3758C122.129 27.6691 123.039 27.8158 123.948 27.8158C124.96 27.8158 125.708 27.6691 126.192 27.3758C126.676 27.0678 126.918 26.6644 126.918 26.1658C126.918 25.7991 126.771 25.4984 126.478 25.2638C126.199 25.0144 125.833 24.8164 125.378 24.6698C124.938 24.5231 124.337 24.3618 123.574 24.1858C122.401 23.9071 121.44 23.6284 120.692 23.3498C119.944 23.0711 119.299 22.6238 118.756 22.0078C118.228 21.3918 117.964 20.5704 117.964 19.5438C117.964 18.6491 118.206 17.8424 118.69 17.1238C119.174 16.3904 119.9 15.8111 120.868 15.3858C121.851 14.9604 123.046 14.7478 124.454 14.7478C125.437 14.7478 126.397 14.8651 127.336 15.0998C128.275 15.3344 129.096 15.6718 129.8 16.1118L128.7 18.8178C127.277 18.0111 125.855 17.6078 124.432 17.6078C123.435 17.6078 122.694 17.7691 122.21 18.0918C121.741 18.4144 121.506 18.8398 121.506 19.3678C121.506 19.8958 121.777 20.2918 122.32 20.5558C122.877 20.8051 123.721 21.0544 124.85 21.3038C126.023 21.5824 126.984 21.8611 127.732 22.1398C128.48 22.4184 129.118 22.8584 129.646 23.4598C130.189 24.0611 130.46 24.8751 130.46 25.9018C130.46 26.7818 130.211 27.5884 129.712 28.3218C129.228 29.0404 128.495 29.6124 127.512 30.0378C126.529 30.4631 125.334 30.6758 123.926 30.6758ZM143.917 24.5378C143.917 24.5818 143.895 24.8898 143.851 25.4618H134.897C135.058 26.1951 135.44 26.7744 136.041 27.1998C136.642 27.6251 137.39 27.8378 138.285 27.8378C138.901 27.8378 139.444 27.7498 139.913 27.5738C140.397 27.3831 140.844 27.0898 141.255 26.6938L143.081 28.6738C141.966 29.9498 140.338 30.5878 138.197 30.5878C136.862 30.5878 135.682 30.3311 134.655 29.8178C133.628 29.2898 132.836 28.5638 132.279 27.6398C131.722 26.7158 131.443 25.6671 131.443 24.4938C131.443 23.3351 131.714 22.2938 132.257 21.3698C132.814 20.4311 133.57 19.7051 134.523 19.1918C135.491 18.6638 136.569 18.3998 137.757 18.3998C138.916 18.3998 139.964 18.6491 140.903 19.1478C141.842 19.6464 142.575 20.3651 143.103 21.3038C143.646 22.2278 143.917 23.3058 143.917 24.5378ZM137.779 20.9958C137.002 20.9958 136.349 21.2158 135.821 21.6558C135.293 22.0958 134.97 22.6971 134.853 23.4598H140.683C140.566 22.7118 140.243 22.1178 139.715 21.6778C139.187 21.2231 138.542 20.9958 137.779 20.9958ZM153.066 18.3998C154.533 18.3998 155.713 18.8398 156.608 19.7198C157.517 20.5998 157.972 21.9051 157.972 23.6358V30.4118H154.54V24.1638C154.54 23.2251 154.335 22.5284 153.924 22.0738C153.513 21.6044 152.919 21.3698 152.142 21.3698C151.277 21.3698 150.587 21.6411 150.074 22.1838C149.561 22.7118 149.304 23.5038 149.304 24.5598V30.4118H145.872V18.5758H149.15V19.9618C149.605 19.4631 150.169 19.0818 150.844 18.8178C151.519 18.5391 152.259 18.3998 153.066 18.3998ZM172.938 14.0878V30.4118H169.66V29.0478C168.809 30.0744 167.577 30.5878 165.964 30.5878C164.849 30.5878 163.837 30.3384 162.928 29.8398C162.033 29.3411 161.329 28.6298 160.816 27.7058C160.303 26.7818 160.046 25.7111 160.046 24.4938C160.046 23.2764 160.303 22.2058 160.816 21.2818C161.329 20.3578 162.033 19.6464 162.928 19.1478C163.837 18.6491 164.849 18.3998 165.964 18.3998C167.475 18.3998 168.655 18.8764 169.506 19.8298V14.0878H172.938ZM166.558 27.7718C167.423 27.7718 168.142 27.4784 168.714 26.8918C169.286 26.2904 169.572 25.4911 169.572 24.4938C169.572 23.4964 169.286 22.7044 168.714 22.1178C168.142 21.5164 167.423 21.2158 166.558 21.2158C165.678 21.2158 164.952 21.5164 164.38 22.1178C163.808 22.7044 163.522 23.4964 163.522 24.4938C163.522 25.4911 163.808 26.2904 164.38 26.8918C164.952 27.4784 165.678 27.7718 166.558 27.7718ZM187.378 24.5378C187.378 24.5818 187.356 24.8898 187.312 25.4618H178.358C178.52 26.1951 178.901 26.7744 179.502 27.1998C180.104 27.6251 180.852 27.8378 181.746 27.8378C182.362 27.8378 182.905 27.7498 183.374 27.5738C183.858 27.3831 184.306 27.0898 184.716 26.6938L186.542 28.6738C185.428 29.9498 183.8 30.5878 181.658 30.5878C180.324 30.5878 179.143 30.3311 178.116 29.8178C177.09 29.2898 176.298 28.5638 175.74 27.6398C175.183 26.7158 174.904 25.6671 174.904 24.4938C174.904 23.3351 175.176 22.2938 175.718 21.3698C176.276 20.4311 177.031 19.7051 177.984 19.1918C178.952 18.6638 180.03 18.3998 181.218 18.3998C182.377 18.3998 183.426 18.6491 184.364 19.1478C185.303 19.6464 186.036 20.3651 186.564 21.3038C187.107 22.2278 187.378 23.3058 187.378 24.5378ZM181.24 20.9958C180.463 20.9958 179.81 21.2158 179.282 21.6558C178.754 22.0958 178.432 22.6971 178.314 23.4598H184.144C184.027 22.7118 183.704 22.1178 183.176 21.6778C182.648 21.2231 182.003 20.9958 181.24 20.9958ZM196.527 18.3998C197.994 18.3998 199.175 18.8398 200.069 19.7198C200.979 20.5998 201.433 21.9051 201.433 23.6358V30.4118H198.001V24.1638C198.001 23.2251 197.796 22.5284 197.385 22.0738C196.975 21.6044 196.381 21.3698 195.603 21.3698C194.738 21.3698 194.049 21.6411 193.535 22.1838C193.022 22.7118 192.765 23.5038 192.765 24.5598V30.4118H189.333V18.5758H192.611V19.9618C193.066 19.4631 193.631 19.0818 194.305 18.8178C194.98 18.5391 195.721 18.3998 196.527 18.3998Z" fill="white"/>
</svg>
