<svg width="321" height="45" viewBox="0 0 321 45" fill="none" xmlns="http://www.w3.org/2000/svg">
<rect width="321" height="45" fill="#92B9AF"/>
<path d="M123.926 30.6757C122.709 30.6757 121.528 30.5144 120.384 30.1917C119.255 29.8544 118.345 29.4217 117.656 28.8937L118.866 26.2097C119.526 26.6937 120.311 27.0824 121.22 27.3757C122.129 27.6691 123.039 27.8157 123.948 27.8157C124.96 27.8157 125.708 27.6691 126.192 27.3757C126.676 27.0677 126.918 26.6644 126.918 26.1657C126.918 25.7991 126.771 25.4984 126.478 25.2637C126.199 25.0144 125.833 24.8164 125.378 24.6697C124.938 24.5231 124.337 24.3617 123.574 24.1857C122.401 23.9071 121.44 23.6284 120.692 23.3497C119.944 23.0711 119.299 22.6237 118.756 22.0077C118.228 21.3917 117.964 20.5704 117.964 19.5437C117.964 18.6491 118.206 17.8424 118.69 17.1237C119.174 16.3904 119.9 15.8111 120.868 15.3857C121.851 14.9604 123.046 14.7477 124.454 14.7477C125.437 14.7477 126.397 14.8651 127.336 15.0997C128.275 15.3344 129.096 15.6717 129.8 16.1117L128.7 18.8177C127.277 18.0111 125.855 17.6077 124.432 17.6077C123.435 17.6077 122.694 17.7691 122.21 18.0917C121.741 18.4144 121.506 18.8397 121.506 19.3677C121.506 19.8957 121.777 20.2917 122.32 20.5557C122.877 20.8051 123.721 21.0544 124.85 21.3037C126.023 21.5824 126.984 21.8611 127.732 22.1397C128.48 22.4184 129.118 22.8584 129.646 23.4597C130.189 24.0611 130.46 24.8751 130.46 25.9017C130.46 26.7817 130.211 27.5884 129.712 28.3217C129.228 29.0404 128.495 29.6124 127.512 30.0377C126.529 30.4631 125.334 30.6757 123.926 30.6757ZM143.917 24.5377C143.917 24.5817 143.895 24.8897 143.851 25.4617H134.897C135.058 26.1951 135.44 26.7744 136.041 27.1997C136.642 27.6251 137.39 27.8377 138.285 27.8377C138.901 27.8377 139.444 27.7497 139.913 27.5737C140.397 27.3831 140.844 27.0897 141.255 26.6937L143.081 28.6737C141.966 29.9497 140.338 30.5877 138.197 30.5877C136.862 30.5877 135.682 30.3311 134.655 29.8177C133.628 29.2897 132.836 28.5637 132.279 27.6397C131.722 26.7157 131.443 25.6671 131.443 24.4937C131.443 23.3351 131.714 22.2937 132.257 21.3697C132.814 20.4311 133.57 19.7051 134.523 19.1917C135.491 18.6637 136.569 18.3997 137.757 18.3997C138.916 18.3997 139.964 18.6491 140.903 19.1477C141.842 19.6464 142.575 20.3651 143.103 21.3037C143.646 22.2277 143.917 23.3057 143.917 24.5377ZM137.779 20.9957C137.002 20.9957 136.349 21.2157 135.821 21.6557C135.293 22.0957 134.97 22.6971 134.853 23.4597H140.683C140.566 22.7117 140.243 22.1177 139.715 21.6777C139.187 21.2231 138.542 20.9957 137.779 20.9957ZM153.066 18.3997C154.533 18.3997 155.713 18.8397 156.608 19.7197C157.517 20.5997 157.972 21.9051 157.972 23.6357V30.4117H154.54V24.1637C154.54 23.2251 154.335 22.5284 153.924 22.0737C153.513 21.6044 152.919 21.3697 152.142 21.3697C151.277 21.3697 150.587 21.6411 150.074 22.1837C149.561 22.7117 149.304 23.5037 149.304 24.5597V30.4117H145.872V18.5757H149.15V19.9617C149.605 19.4631 150.169 19.0817 150.844 18.8177C151.519 18.5391 152.259 18.3997 153.066 18.3997ZM172.938 14.0877V30.4117H169.66V29.0477C168.809 30.0744 167.577 30.5877 165.964 30.5877C164.849 30.5877 163.837 30.3384 162.928 29.8397C162.033 29.3411 161.329 28.6297 160.816 27.7057C160.303 26.7817 160.046 25.7111 160.046 24.4937C160.046 23.2764 160.303 22.2057 160.816 21.2817C161.329 20.3577 162.033 19.6464 162.928 19.1477C163.837 18.6491 164.849 18.3997 165.964 18.3997C167.475 18.3997 168.655 18.8764 169.506 19.8297V14.0877H172.938ZM166.558 27.7717C167.423 27.7717 168.142 27.4784 168.714 26.8917C169.286 26.2904 169.572 25.4911 169.572 24.4937C169.572 23.4964 169.286 22.7044 168.714 22.1177C168.142 21.5164 167.423 21.2157 166.558 21.2157C165.678 21.2157 164.952 21.5164 164.38 22.1177C163.808 22.7044 163.522 23.4964 163.522 24.4937C163.522 25.4911 163.808 26.2904 164.38 26.8917C164.952 27.4784 165.678 27.7717 166.558 27.7717ZM187.378 24.5377C187.378 24.5817 187.356 24.8897 187.312 25.4617H178.358C178.52 26.1951 178.901 26.7744 179.502 27.1997C180.104 27.6251 180.852 27.8377 181.746 27.8377C182.362 27.8377 182.905 27.7497 183.374 27.5737C183.858 27.3831 184.306 27.0897 184.716 26.6937L186.542 28.6737C185.428 29.9497 183.8 30.5877 181.658 30.5877C180.324 30.5877 179.143 30.3311 178.116 29.8177C177.09 29.2897 176.298 28.5637 175.74 27.6397C175.183 26.7157 174.904 25.6671 174.904 24.4937C174.904 23.3351 175.176 22.2937 175.718 21.3697C176.276 20.4311 177.031 19.7051 177.984 19.1917C178.952 18.6637 180.03 18.3997 181.218 18.3997C182.377 18.3997 183.426 18.6491 184.364 19.1477C185.303 19.6464 186.036 20.3651 186.564 21.3037C187.107 22.2277 187.378 23.3057 187.378 24.5377ZM181.24 20.9957C180.463 20.9957 179.81 21.2157 179.282 21.6557C178.754 22.0957 178.432 22.6971 178.314 23.4597H184.144C184.027 22.7117 183.704 22.1177 183.176 21.6777C182.648 21.2231 182.003 20.9957 181.24 20.9957ZM196.527 18.3997C197.994 18.3997 199.175 18.8397 200.069 19.7197C200.979 20.5997 201.433 21.9051 201.433 23.6357V30.4117H198.001V24.1637C198.001 23.2251 197.796 22.5284 197.385 22.0737C196.975 21.6044 196.381 21.3697 195.603 21.3697C194.738 21.3697 194.049 21.6411 193.535 22.1837C193.022 22.7117 192.765 23.5037 192.765 24.5597V30.4117H189.333V18.5757H192.611V19.9617C193.066 19.4631 193.631 19.0817 194.305 18.8177C194.98 18.5391 195.721 18.3997 196.527 18.3997Z" fill="white"/>
</svg>
