<svg width="414" height="45" viewBox="0 0 414 45" fill="none" xmlns="http://www.w3.org/2000/svg">
<rect width="414" height="45" fill="#878787"/>
<path d="M125.931 30.264C124.89 30.264 123.929 30.0733 123.049 29.692C122.184 29.296 121.472 28.7387 120.915 28.02L122.895 25.644C123.731 26.7733 124.684 27.338 125.755 27.338C127.207 27.338 127.933 26.4873 127.933 24.786V17.46H122.521V14.6H131.475V24.588C131.475 26.48 131.006 27.9027 130.067 28.856C129.128 29.7947 127.75 30.264 125.931 30.264ZM146.017 24.126C146.017 24.17 145.995 24.478 145.951 25.05H136.997C137.159 25.7833 137.54 26.3627 138.141 26.788C138.743 27.2133 139.491 27.426 140.385 27.426C141.001 27.426 141.544 27.338 142.013 27.162C142.497 26.9713 142.945 26.678 143.355 26.282L145.181 28.262C144.067 29.538 142.439 30.176 140.297 30.176C138.963 30.176 137.782 29.9193 136.755 29.406C135.729 28.878 134.937 28.152 134.379 27.228C133.822 26.304 133.543 25.2553 133.543 24.082C133.543 22.9233 133.815 21.882 134.357 20.958C134.915 20.0193 135.67 19.2933 136.623 18.78C137.591 18.252 138.669 17.988 139.857 17.988C141.016 17.988 142.065 18.2373 143.003 18.736C143.942 19.2347 144.675 19.9533 145.203 20.892C145.746 21.816 146.017 22.894 146.017 24.126ZM139.879 20.584C139.102 20.584 138.449 20.804 137.921 21.244C137.393 21.684 137.071 22.2853 136.953 23.048H142.783C142.666 22.3 142.343 21.706 141.815 21.266C141.287 20.8113 140.642 20.584 139.879 20.584ZM155.606 29.428C155.269 29.6773 154.851 29.868 154.352 30C153.868 30.1173 153.355 30.176 152.812 30.176C151.404 30.176 150.312 29.8167 149.534 29.098C148.772 28.3793 148.39 27.3233 148.39 25.93V21.068H146.564V18.428H148.39V15.546H151.822V18.428H154.77V21.068H151.822V25.886C151.822 26.3847 151.947 26.7733 152.196 27.052C152.46 27.316 152.827 27.448 153.296 27.448C153.839 27.448 154.301 27.3013 154.682 27.008L155.606 29.428ZM166.949 27.36V30H156.389V27.932L162.417 20.804H156.543V18.164H166.751V20.232L160.723 27.36H166.949ZM176.517 29.428C176.179 29.6773 175.761 29.868 175.263 30C174.779 30.1173 174.265 30.176 173.723 30.176C172.315 30.176 171.222 29.8167 170.445 29.098C169.682 28.3793 169.301 27.3233 169.301 25.93V21.068H167.475V18.428H169.301V15.546H172.733V18.428H175.681V21.068H172.733V25.886C172.733 26.3847 172.857 26.7733 173.107 27.052C173.371 27.316 173.737 27.448 174.207 27.448C174.749 27.448 175.211 27.3013 175.593 27.008L176.517 29.428ZM188.788 17.988C190.621 17.988 192.029 18.428 193.012 19.308C193.994 20.1733 194.486 21.486 194.486 23.246V30H191.274V28.526C190.628 29.626 189.426 30.176 187.666 30.176C186.756 30.176 185.964 30.022 185.29 29.714C184.63 29.406 184.124 28.9807 183.772 28.438C183.42 27.8953 183.244 27.2793 183.244 26.59C183.244 25.49 183.654 24.6247 184.476 23.994C185.312 23.3633 186.595 23.048 188.326 23.048H191.054C191.054 22.3 190.826 21.728 190.372 21.332C189.917 20.9213 189.235 20.716 188.326 20.716C187.695 20.716 187.072 20.8187 186.456 21.024C185.854 21.2147 185.341 21.4787 184.916 21.816L183.684 19.418C184.329 18.9633 185.099 18.6113 185.994 18.362C186.903 18.1127 187.834 17.988 188.788 17.988ZM188.524 27.866C189.11 27.866 189.631 27.734 190.086 27.47C190.54 27.1913 190.863 26.788 191.054 26.26V25.05H188.7C187.292 25.05 186.588 25.512 186.588 26.436C186.588 26.876 186.756 27.228 187.094 27.492C187.446 27.7413 187.922 27.866 188.524 27.866ZM204.456 17.988C205.922 17.988 207.103 18.428 207.998 19.308C208.907 20.188 209.362 21.4933 209.362 23.224V30H205.93V23.752C205.93 22.8133 205.724 22.1167 205.314 21.662C204.903 21.1927 204.309 20.958 203.532 20.958C202.666 20.958 201.977 21.2293 201.464 21.772C200.95 22.3 200.694 23.092 200.694 24.148V30H197.262V18.164H200.54V19.55C200.994 19.0513 201.559 18.67 202.234 18.406C202.908 18.1273 203.649 17.988 204.456 17.988ZM215.905 18.428H218.941V21.068H215.993V30H212.561V21.068H210.735V18.428H212.561V17.9C212.561 16.5507 212.957 15.48 213.749 14.688C214.555 13.896 215.685 13.5 217.137 13.5C217.65 13.5 218.134 13.5587 218.589 13.676C219.058 13.7787 219.447 13.9327 219.755 14.138L218.853 16.624C218.457 16.3453 217.995 16.206 217.467 16.206C216.425 16.206 215.905 16.778 215.905 17.922V18.428ZM225.36 19.726C225.771 19.154 226.321 18.7213 227.01 18.428C227.714 18.1347 228.521 17.988 229.43 17.988V21.156C229.049 21.1267 228.792 21.112 228.66 21.112C227.678 21.112 226.908 21.3907 226.35 21.948C225.793 22.4907 225.514 23.312 225.514 24.412V30H222.082V18.164H225.36V19.726ZM235.85 17.988C237.684 17.988 239.092 18.428 240.074 19.308C241.057 20.1733 241.548 21.486 241.548 23.246V30H238.336V28.526C237.691 29.626 236.488 30.176 234.728 30.176C233.819 30.176 233.027 30.022 232.352 29.714C231.692 29.406 231.186 28.9807 230.834 28.438C230.482 27.8953 230.306 27.2793 230.306 26.59C230.306 25.49 230.717 24.6247 231.538 23.994C232.374 23.3633 233.658 23.048 235.388 23.048H238.116C238.116 22.3 237.889 21.728 237.434 21.332C236.98 20.9213 236.298 20.716 235.388 20.716C234.758 20.716 234.134 20.8187 233.518 21.024C232.917 21.2147 232.404 21.4787 231.978 21.816L230.746 19.418C231.392 18.9633 232.162 18.6113 233.056 18.362C233.966 18.1127 234.897 17.988 235.85 17.988ZM235.586 27.866C236.173 27.866 236.694 27.734 237.148 27.47C237.603 27.1913 237.926 26.788 238.116 26.26V25.05H235.762C234.354 25.05 233.65 25.512 233.65 26.436C233.65 26.876 233.819 27.228 234.156 27.492C234.508 27.7413 234.985 27.866 235.586 27.866ZM256.663 18.164V28.02C256.663 30.1907 256.099 31.804 254.969 32.86C253.84 33.916 252.19 34.444 250.019 34.444C248.875 34.444 247.79 34.3047 246.763 34.026C245.737 33.7473 244.886 33.344 244.211 32.816L245.575 30.352C246.074 30.7627 246.705 31.0853 247.467 31.32C248.23 31.5693 248.993 31.694 249.755 31.694C250.943 31.694 251.816 31.4227 252.373 30.88C252.945 30.352 253.231 29.5453 253.231 28.46V27.954C252.337 28.9367 251.09 29.428 249.491 29.428C248.406 29.428 247.409 29.1933 246.499 28.724C245.605 28.24 244.893 27.5653 244.365 26.7C243.837 25.8347 243.573 24.8373 243.573 23.708C243.573 22.5787 243.837 21.5813 244.365 20.716C244.893 19.8507 245.605 19.1833 246.499 18.714C247.409 18.23 248.406 17.988 249.491 17.988C251.207 17.988 252.513 18.5527 253.407 19.682V18.164H256.663ZM250.173 26.612C251.083 26.612 251.823 26.348 252.395 25.82C252.982 25.2773 253.275 24.5733 253.275 23.708C253.275 22.8427 252.982 22.146 252.395 21.618C251.823 21.0753 251.083 20.804 250.173 20.804C249.264 20.804 248.516 21.0753 247.929 21.618C247.343 22.146 247.049 22.8427 247.049 23.708C247.049 24.5733 247.343 25.2773 247.929 25.82C248.516 26.348 249.264 26.612 250.173 26.612ZM271.122 24.126C271.122 24.17 271.1 24.478 271.056 25.05H262.102C262.263 25.7833 262.644 26.3627 263.246 26.788C263.847 27.2133 264.595 27.426 265.49 27.426C266.106 27.426 266.648 27.338 267.118 27.162C267.602 26.9713 268.049 26.678 268.46 26.282L270.286 28.262C269.171 29.538 267.543 30.176 265.402 30.176C264.067 30.176 262.886 29.9193 261.86 29.406C260.833 28.878 260.041 28.152 259.484 27.228C258.926 26.304 258.648 25.2553 258.648 24.082C258.648 22.9233 258.919 21.882 259.462 20.958C260.019 20.0193 260.774 19.2933 261.728 18.78C262.696 18.252 263.774 17.988 264.962 17.988C266.12 17.988 267.169 18.2373 268.108 18.736C269.046 19.2347 269.78 19.9533 270.308 20.892C270.85 21.816 271.122 22.894 271.122 24.126ZM264.984 20.584C264.206 20.584 263.554 20.804 263.026 21.244C262.498 21.684 262.175 22.2853 262.058 23.048H267.888C267.77 22.3 267.448 21.706 266.92 21.266C266.392 20.8113 265.746 20.584 264.984 20.584ZM280.271 17.988C281.737 17.988 282.918 18.428 283.813 19.308C284.722 20.188 285.177 21.4933 285.177 23.224V30H281.745V23.752C281.745 22.8133 281.539 22.1167 281.129 21.662C280.718 21.1927 280.124 20.958 279.347 20.958C278.481 20.958 277.792 21.2293 277.279 21.772C276.765 22.3 276.509 23.092 276.509 24.148V30H273.077V18.164H276.355V19.55C276.809 19.0513 277.374 18.67 278.049 18.406C278.723 18.1273 279.464 17.988 280.271 17.988ZM287.518 14.6H291.61L290.928 24.654H288.2L287.518 14.6ZM289.564 30.176C288.962 30.176 288.456 29.9853 288.046 29.604C287.65 29.208 287.452 28.7313 287.452 28.174C287.452 27.6167 287.65 27.1547 288.046 26.788C288.442 26.4067 288.948 26.216 289.564 26.216C290.18 26.216 290.686 26.4067 291.082 26.788C291.478 27.1547 291.676 27.6167 291.676 28.174C291.676 28.7313 291.47 29.208 291.06 29.604C290.664 29.9853 290.165 30.176 289.564 30.176Z" fill="white"/>
</svg>
