<svg width="145" height="45" viewBox="0 0 145 45" fill="none" xmlns="http://www.w3.org/2000/svg">
<rect width="145" height="45" fill="#878787"/>
<path d="M57.2539 18.164L52.9639 30H49.6639L47.0019 22.652L44.2519 30H40.9519L36.6839 18.164H39.9179L42.7119 26.172L45.6159 18.164H48.5199L51.3359 26.172L54.2179 18.164H57.2539ZM69.7912 24.126C69.7912 24.17 69.7692 24.478 69.7252 25.05H60.7712C60.9325 25.7833 61.3138 26.3627 61.9152 26.788C62.5165 27.2133 63.2645 27.426 64.1592 27.426C64.7752 27.426 65.3178 27.338 65.7872 27.162C66.2712 26.9713 66.7185 26.678 67.1292 26.282L68.9552 28.262C67.8405 29.538 66.2125 30.176 64.0712 30.176C62.7365 30.176 61.5558 29.9193 60.5292 29.406C59.5025 28.878 58.7105 28.152 58.1532 27.228C57.5958 26.304 57.3172 25.2553 57.3172 24.082C57.3172 22.9233 57.5885 21.882 58.1312 20.958C58.6885 20.0193 59.4438 19.2933 60.3972 18.78C61.3652 18.252 62.4432 17.988 63.6312 17.988C64.7898 17.988 65.8385 18.2373 66.7772 18.736C67.7158 19.2347 68.4492 19.9533 68.9772 20.892C69.5198 21.816 69.7912 22.894 69.7912 24.126ZM63.6532 20.584C62.8758 20.584 62.2232 20.804 61.6952 21.244C61.1672 21.684 60.8445 22.2853 60.7272 23.048H66.5572C66.4398 22.3 66.1172 21.706 65.5892 21.266C65.0612 20.8113 64.4158 20.584 63.6532 20.584ZM71.7461 18.164H75.1781V30H71.7461V18.164ZM73.4621 16.514C72.8314 16.514 72.3181 16.3307 71.9221 15.964C71.5261 15.5973 71.3281 15.1427 71.3281 14.6C71.3281 14.0573 71.5261 13.6027 71.9221 13.236C72.3181 12.8693 72.8314 12.686 73.4621 12.686C74.0927 12.686 74.6061 12.862 75.0021 13.214C75.3981 13.566 75.5961 14.006 75.5961 14.534C75.5961 15.106 75.3981 15.5827 75.0021 15.964C74.6061 16.3307 74.0927 16.514 73.4621 16.514ZM85.6673 29.428C85.3299 29.6773 84.9119 29.868 84.4133 30C83.9293 30.1173 83.4159 30.176 82.8733 30.176C81.4653 30.176 80.3726 29.8167 79.5953 29.098C78.8326 28.3793 78.4513 27.3233 78.4513 25.93V21.068H76.6253V18.428H78.4513V15.546H81.8833V18.428H84.8313V21.068H81.8833V25.886C81.8833 26.3847 82.0079 26.7733 82.2573 27.052C82.5213 27.316 82.8879 27.448 83.3573 27.448C83.8999 27.448 84.3619 27.3013 84.7433 27.008L85.6673 29.428ZM98.4926 24.126C98.4926 24.17 98.4706 24.478 98.4266 25.05H89.4726C89.6339 25.7833 90.0152 26.3627 90.6166 26.788C91.2179 27.2133 91.9659 27.426 92.8606 27.426C93.4766 27.426 94.0192 27.338 94.4886 27.162C94.9726 26.9713 95.4199 26.678 95.8306 26.282L97.6566 28.262C96.5419 29.538 94.9139 30.176 92.7726 30.176C91.4379 30.176 90.2572 29.9193 89.2306 29.406C88.2039 28.878 87.4119 28.152 86.8546 27.228C86.2972 26.304 86.0186 25.2553 86.0186 24.082C86.0186 22.9233 86.2899 21.882 86.8326 20.958C87.3899 20.0193 88.1452 19.2933 89.0986 18.78C90.0666 18.252 91.1446 17.988 92.3326 17.988C93.4912 17.988 94.5399 18.2373 95.4786 18.736C96.4172 19.2347 97.1506 19.9533 97.6786 20.892C98.2212 21.816 98.4926 22.894 98.4926 24.126ZM92.3546 20.584C91.5772 20.584 90.9246 20.804 90.3966 21.244C89.8686 21.684 89.5459 22.2853 89.4286 23.048H95.2586C95.1412 22.3 94.8186 21.706 94.2906 21.266C93.7626 20.8113 93.1172 20.584 92.3546 20.584ZM103.725 19.726C104.136 19.154 104.686 18.7213 105.375 18.428C106.079 18.1347 106.886 17.988 107.795 17.988V21.156C107.414 21.1267 107.157 21.112 107.025 21.112C106.043 21.112 105.273 21.3907 104.715 21.948C104.158 22.4907 103.879 23.312 103.879 24.412V30H100.447V18.164H103.725V19.726Z" fill="white"/>
</svg>
