<svg width="262" height="39" viewBox="0 0 262 39" fill="none" xmlns="http://www.w3.org/2000/svg">
<path d="M44.27 18.84V21H35.63V19.308L40.562 13.476H35.756V11.316H44.108V13.008L39.176 18.84H44.27ZM55.5554 11.316V21H52.8914V19.848C52.5194 20.268 52.0754 20.592 51.5594 20.82C51.0434 21.036 50.4854 21.144 49.8854 21.144C48.6134 21.144 47.6054 20.778 46.8614 20.046C46.1174 19.314 45.7454 18.228 45.7454 16.788V11.316H48.5534V16.374C48.5534 17.934 49.2074 18.714 50.5154 18.714C51.1874 18.714 51.7274 18.498 52.1354 18.066C52.5434 17.622 52.7474 16.968 52.7474 16.104V11.316H55.5554ZM60.5689 12.594C60.9049 12.126 61.3549 11.772 61.9189 11.532C62.4949 11.292 63.1549 11.172 63.8989 11.172V13.764C63.5869 13.74 63.3769 13.728 63.2689 13.728C62.4649 13.728 61.8349 13.956 61.3789 14.412C60.9229 14.856 60.6949 15.528 60.6949 16.428V21H57.8869V11.316H60.5689V12.594ZM75.1248 11.316V21H72.4608V19.848C72.0888 20.268 71.6448 20.592 71.1288 20.82C70.6128 21.036 70.0548 21.144 69.4548 21.144C68.1828 21.144 67.1748 20.778 66.4308 20.046C65.6868 19.314 65.3148 18.228 65.3148 16.788V11.316H68.1228V16.374C68.1228 17.934 68.7768 18.714 70.0848 18.714C70.7568 18.714 71.2968 18.498 71.7048 18.066C72.1128 17.622 72.3168 16.968 72.3168 16.104V11.316H75.1248ZM68.3928 9.984C68.0328 9.984 67.7328 9.87 67.4928 9.642C67.2528 9.402 67.1328 9.102 67.1328 8.742C67.1328 8.382 67.2528 8.088 67.4928 7.86C67.7328 7.62 68.0328 7.5 68.3928 7.5C68.7528 7.5 69.0468 7.62 69.2748 7.86C69.5148 8.088 69.6348 8.382 69.6348 8.742C69.6348 9.102 69.5148 9.402 69.2748 9.642C69.0468 9.87 68.7528 9.984 68.3928 9.984ZM72.0288 9.984C71.6688 9.984 71.3688 9.87 71.1288 9.642C70.9008 9.402 70.7868 9.102 70.7868 8.742C70.7868 8.382 70.9008 8.088 71.1288 7.86C71.3688 7.62 71.6688 7.5 72.0288 7.5C72.3888 7.5 72.6888 7.62 72.9288 7.86C73.1688 8.088 73.2888 8.382 73.2888 8.742C73.2888 9.102 73.1688 9.402 72.9288 9.642C72.6888 9.87 72.3888 9.984 72.0288 9.984ZM82.1362 21.144C81.1042 21.144 80.1742 20.934 79.3462 20.514C78.5302 20.082 77.8882 19.488 77.4202 18.732C76.9642 17.976 76.7362 17.118 76.7362 16.158C76.7362 15.198 76.9642 14.34 77.4202 13.584C77.8882 12.828 78.5302 12.24 79.3462 11.82C80.1742 11.388 81.1042 11.172 82.1362 11.172C83.1562 11.172 84.0442 11.388 84.8002 11.82C85.5682 12.24 86.1262 12.846 86.4742 13.638L84.2962 14.808C83.7922 13.92 83.0662 13.476 82.1182 13.476C81.3862 13.476 80.7802 13.716 80.3002 14.196C79.8202 14.676 79.5802 15.33 79.5802 16.158C79.5802 16.986 79.8202 17.64 80.3002 18.12C80.7802 18.6 81.3862 18.84 82.1182 18.84C83.0782 18.84 83.8042 18.396 84.2962 17.508L86.4742 18.696C86.1262 19.464 85.5682 20.064 84.8002 20.496C84.0442 20.928 83.1562 21.144 82.1362 21.144ZM91.9087 17.202L90.5587 18.534V21H87.7507V7.644H90.5587V15.204L94.6627 11.316H98.0107L93.9787 15.42L98.3707 21H94.9687L91.9087 17.202ZM112.165 18.84V21H103.525V19.308L108.457 13.476H103.651V11.316H112.003V13.008L107.071 18.84H112.165ZM123.451 11.316V21H120.787V19.848C120.415 20.268 119.971 20.592 119.455 20.82C118.939 21.036 118.381 21.144 117.781 21.144C116.509 21.144 115.501 20.778 114.757 20.046C114.013 19.314 113.641 18.228 113.641 16.788V11.316H116.449V16.374C116.449 17.934 117.103 18.714 118.411 18.714C119.083 18.714 119.623 18.498 120.031 18.066C120.439 17.622 120.643 16.968 120.643 16.104V11.316H123.451ZM128.464 12.594C128.8 12.126 129.25 11.772 129.814 11.532C130.39 11.292 131.05 11.172 131.794 11.172V13.764C131.482 13.74 131.272 13.728 131.164 13.728C130.36 13.728 129.73 13.956 129.274 14.412C128.818 14.856 128.59 15.528 128.59 16.428V21H125.782V11.316H128.464V12.594ZM143.888 21.216C142.088 21.216 140.684 20.718 139.676 19.722C138.68 18.726 138.182 17.304 138.182 15.456V8.4H141.098V15.348C141.098 17.604 142.034 18.732 143.906 18.732C144.818 18.732 145.514 18.462 145.994 17.922C146.474 17.37 146.714 16.512 146.714 15.348V8.4H149.594V15.456C149.594 17.304 149.09 18.726 148.082 19.722C147.086 20.718 145.688 21.216 143.888 21.216ZM142.088 7.284C141.728 7.284 141.428 7.17 141.188 6.942C140.948 6.702 140.828 6.402 140.828 6.042C140.828 5.682 140.948 5.388 141.188 5.16C141.428 4.92 141.728 4.8 142.088 4.8C142.448 4.8 142.742 4.92 142.97 5.16C143.21 5.388 143.33 5.682 143.33 6.042C143.33 6.402 143.21 6.702 142.97 6.942C142.742 7.17 142.448 7.284 142.088 7.284ZM145.724 7.284C145.364 7.284 145.064 7.17 144.824 6.942C144.596 6.702 144.482 6.402 144.482 6.042C144.482 5.682 144.596 5.388 144.824 5.16C145.064 4.92 145.364 4.8 145.724 4.8C146.084 4.8 146.384 4.92 146.624 5.16C146.864 5.388 146.984 5.682 146.984 6.042C146.984 6.402 146.864 6.702 146.624 6.942C146.384 7.17 146.084 7.284 145.724 7.284ZM157.731 11.172C158.631 11.172 159.447 11.382 160.179 11.802C160.923 12.21 161.505 12.792 161.925 13.548C162.345 14.292 162.555 15.162 162.555 16.158C162.555 17.154 162.345 18.03 161.925 18.786C161.505 19.53 160.923 20.112 160.179 20.532C159.447 20.94 158.631 21.144 157.731 21.144C156.399 21.144 155.385 20.724 154.689 19.884V21H152.007V7.644H154.815V12.342C155.523 11.562 156.495 11.172 157.731 11.172ZM157.245 18.84C157.965 18.84 158.553 18.6 159.009 18.12C159.477 17.628 159.711 16.974 159.711 16.158C159.711 15.342 159.477 14.694 159.009 14.214C158.553 13.722 157.965 13.476 157.245 13.476C156.525 13.476 155.931 13.722 155.463 14.214C155.007 14.694 154.779 15.342 154.779 16.158C154.779 16.974 155.007 17.628 155.463 18.12C155.931 18.6 156.525 18.84 157.245 18.84ZM173.651 16.194C173.651 16.23 173.633 16.482 173.597 16.95H166.271C166.403 17.55 166.715 18.024 167.207 18.372C167.699 18.72 168.311 18.894 169.043 18.894C169.547 18.894 169.991 18.822 170.375 18.678C170.771 18.522 171.137 18.282 171.473 17.958L172.967 19.578C172.055 20.622 170.723 21.144 168.971 21.144C167.879 21.144 166.913 20.934 166.073 20.514C165.233 20.082 164.585 19.488 164.129 18.732C163.673 17.976 163.445 17.118 163.445 16.158C163.445 15.21 163.667 14.358 164.111 13.602C164.567 12.834 165.185 12.24 165.965 11.82C166.757 11.388 167.639 11.172 168.611 11.172C169.559 11.172 170.417 11.376 171.185 11.784C171.953 12.192 172.553 12.78 172.985 13.548C173.429 14.304 173.651 15.186 173.651 16.194ZM168.629 13.296C167.993 13.296 167.459 13.476 167.027 13.836C166.595 14.196 166.331 14.688 166.235 15.312H171.005C170.909 14.7 170.645 14.214 170.213 13.854C169.781 13.482 169.253 13.296 168.629 13.296ZM177.932 12.594C178.268 12.126 178.718 11.772 179.282 11.532C179.858 11.292 180.518 11.172 181.262 11.172V13.764C180.95 13.74 180.74 13.728 180.632 13.728C179.828 13.728 179.198 13.956 178.742 14.412C178.286 14.856 178.058 15.528 178.058 16.428V21H175.25V11.316H177.932V12.594ZM185.955 21.144C185.151 21.144 184.365 21.048 183.597 20.856C182.829 20.652 182.217 20.4 181.761 20.1L182.697 18.084C183.129 18.36 183.651 18.588 184.263 18.768C184.875 18.936 185.475 19.02 186.063 19.02C187.251 19.02 187.845 18.726 187.845 18.138C187.845 17.862 187.683 17.664 187.359 17.544C187.035 17.424 186.537 17.322 185.865 17.238C185.073 17.118 184.419 16.98 183.903 16.824C183.387 16.668 182.937 16.392 182.553 15.996C182.181 15.6 181.995 15.036 181.995 14.304C181.995 13.692 182.169 13.152 182.517 12.684C182.877 12.204 183.393 11.832 184.065 11.568C184.749 11.304 185.553 11.172 186.477 11.172C187.161 11.172 187.839 11.25 188.511 11.406C189.195 11.55 189.759 11.754 190.203 12.018L189.267 14.016C188.415 13.536 187.485 13.296 186.477 13.296C185.877 13.296 185.427 13.38 185.127 13.548C184.827 13.716 184.677 13.932 184.677 14.196C184.677 14.496 184.839 14.706 185.163 14.826C185.487 14.946 186.003 15.06 186.711 15.168C187.503 15.3 188.151 15.444 188.655 15.6C189.159 15.744 189.597 16.014 189.969 16.41C190.341 16.806 190.527 17.358 190.527 18.066C190.527 18.666 190.347 19.2 189.987 19.668C189.627 20.136 189.099 20.502 188.403 20.766C187.719 21.018 186.903 21.144 185.955 21.144ZM191.99 11.316H194.798V21H191.99V11.316ZM193.394 9.966C192.878 9.966 192.458 9.816 192.134 9.516C191.81 9.216 191.648 8.844 191.648 8.4C191.648 7.956 191.81 7.584 192.134 7.284C192.458 6.984 192.878 6.834 193.394 6.834C193.91 6.834 194.33 6.978 194.654 7.266C194.978 7.554 195.14 7.914 195.14 8.346C195.14 8.814 194.978 9.204 194.654 9.516C194.33 9.816 193.91 9.966 193.394 9.966ZM201.814 21.144C200.782 21.144 199.852 20.934 199.024 20.514C198.208 20.082 197.566 19.488 197.098 18.732C196.642 17.976 196.414 17.118 196.414 16.158C196.414 15.198 196.642 14.34 197.098 13.584C197.566 12.828 198.208 12.24 199.024 11.82C199.852 11.388 200.782 11.172 201.814 11.172C202.834 11.172 203.722 11.388 204.478 11.82C205.246 12.24 205.804 12.846 206.152 13.638L203.974 14.808C203.47 13.92 202.744 13.476 201.796 13.476C201.064 13.476 200.458 13.716 199.978 14.196C199.498 14.676 199.258 15.33 199.258 16.158C199.258 16.986 199.498 17.64 199.978 18.12C200.458 18.6 201.064 18.84 201.796 18.84C202.756 18.84 203.482 18.396 203.974 17.508L206.152 18.696C205.804 19.464 205.246 20.064 204.478 20.496C203.722 20.928 202.834 21.144 201.814 21.144ZM213.314 11.172C214.514 11.172 215.48 11.532 216.212 12.252C216.956 12.972 217.328 14.04 217.328 15.456V21H214.52V15.888C214.52 15.12 214.352 14.55 214.016 14.178C213.68 13.794 213.194 13.602 212.558 13.602C211.85 13.602 211.286 13.824 210.866 14.268C210.446 14.7 210.236 15.348 210.236 16.212V21H207.428V7.644H210.236V12.324C210.608 11.952 211.058 11.67 211.586 11.478C212.114 11.274 212.69 11.172 213.314 11.172ZM225.849 20.532C225.573 20.736 225.231 20.892 224.823 21C224.427 21.096 224.007 21.144 223.563 21.144C222.411 21.144 221.517 20.85 220.881 20.262C220.257 19.674 219.945 18.81 219.945 17.67V13.692H218.451V11.532H219.945V9.174H222.753V11.532H225.165V13.692H222.753V17.634C222.753 18.042 222.855 18.36 223.059 18.588C223.275 18.804 223.575 18.912 223.959 18.912C224.403 18.912 224.781 18.792 225.093 18.552L225.849 20.532Z" fill="black"/>
<path d="M12 6L2 15.5L12 25" stroke="black" stroke-width="2"/>
</svg>
